<svg id="Layer_1" data-name="Layer 1" xmlns="http://www.w3.org/2000/svg" viewBox="0 0 350 350"><path d="M175,146.9a29,29,0,1,0,29,29A29,29,0,0,0,175,146.9Zm-12.66,10.39a3.07,3.07,0,1,1,3.07,3.07A3.07,3.07,0,0,1,162.34,157.29Zm11.47,20.08a6.77,6.77,0,1,1,6.76-6.76A6.76,6.76,0,0,1,173.81,177.37Z"/><path d="M259.91,90.09A120.08,120.08,0,1,0,127.76,285.47l0-5.58a114.4,114.4,0,1,1,22,7.36l-.23,5.15A121.25,121.25,0,0,0,175,295.09a120.08,120.08,0,0,0,84.91-205Z"/><path d="M274.42,156.5a116,116,0,0,0-4.12-15.63,22,22,0,0,1-1.72-4.65c-1-2.09-2-4.19-3-6.27a101.87,101.87,0,0,0-19.09-26.52,100.52,100.52,0,0,0-65.38-29.36A104,104,0,0,0,149.91,77a96.46,96.46,0,0,0-27.49,11.65A99.86,99.86,0,0,0,85.66,127.8a102.29,102.29,0,0,0-10.89,35,99.57,99.57,0,0,0,2.81,38.93,98.39,98.39,0,0,0,20.09,38.36,99.84,99.84,0,0,0,28.38,23.43c1.11.61,1.76.94,1.76-.84q-.06-27.69,0-55.38c0-2.15-.64-2.59-2.77-1.95a101,101,0,0,0-11.79,4.9A3.31,3.31,0,0,0,111,213.3c-.57,5.09-5.49,8.18-10.74,6.46C96,218.39,94,212.92,95.7,209.13a8,8,0,0,1,11.39-3.87,2.71,2.71,0,0,0,2.82.22c5.23-2.81,10.51-5.55,14.94-9.6,1.94-1.77,3.21-3.81,3-6.65-.19-2.32,0-4.68,0-7s-.92-3.53-3.24-4.41c-4-1.48-8.05-1-12.11-1.14a3.92,3.92,0,0,0-3.83,1.81c-1.57,2.33-4.49,2.81-7.6,1.66-1.77-.65-3.43-3.43-3.29-5.7a6.17,6.17,0,0,1,2.07-4.6c3.11-2.46,6.62-1.92,9.18,1.24a3,3,0,0,0,2.56,1.24,59.44,59.44,0,0,0,9.8-.48c2.55-.42,5.46-.86,6.4-3.41,1.35-3.65,3.26-7.38,1.92-11.54a3.87,3.87,0,0,0-.25-.55,18.83,18.83,0,0,0-5.32-6.17,118,118,0,0,0-12.28-8.54,2.82,2.82,0,0,0-3.22-.15,7.63,7.63,0,0,1-10-2.3,8,8,0,0,1,8.47-12.53,8.06,8.06,0,0,1,5.93,7.24c.07.92-.09,1.8,1,2.42,4.93,2.94,9.86,5.9,15.38,7.6a12.32,12.32,0,0,0,5.66.84,15.5,15.5,0,0,0,8.13-4.27,6.33,6.33,0,0,0,2-7.18c-1.33-4.29-4.1-7.72-6.51-11.38-.44-.66-1.09-.62-1.77-.65a6.08,6.08,0,1,1,1.35-12c3.39.69,5.35,4.4,4.23,8-.23.74-.68,1.49-.17,2.3,2.49,3.93,4.76,8.07,8.62,10.89,2,1.48,4.28,2.11,6.77.87a15.5,15.5,0,0,1,4.1-1.52c4.26-.77,6.84-3.35,8.28-7.25,2.35-6.41,2.21-13.12,2.27-19.8,0-1-.7-1.41-1.37-1.8A7.23,7.23,0,0,1,167,93.42c.39-3.33,2.07-5.86,5.56-6.79,4.16-1.1,7.51.84,9.48,4.2,1.66,2.82.37,7.82-2.48,9.48a4.32,4.32,0,0,0-2.3,4.83c.6,4.31.16,8.69,1.06,13,1.15,5.48,3.19,10.12,9.33,11.77a30.45,30.45,0,0,1,8.46,3.31c3,1.85,6.14,2.21,9.21.06,3.33-2.34,5.44-5.79,8-8.85a2.63,2.63,0,0,0,.34-2.92c-1-2.87,1.24-6.82,4.16-7.36a5.77,5.77,0,0,1,6.1,2.06c1.51,2,2,4.24.6,6.55a5.83,5.83,0,0,1-6,3.11,1.89,1.89,0,0,0-2,.87c-1.74,2.35-3.69,4.57-5.25,7-2.69,4.23-3.38,8,.43,12.41a38.53,38.53,0,0,1,6.57,11.33,8.32,8.32,0,0,0,4.73,4.87c5.52,2.29,11.25,1.94,17,1.37a13.51,13.51,0,0,1,4.38-.19c1.55.37,2.29-.38,3.21-1.39s1.5-2.73,2.67-3.7a7.5,7.5,0,0,1,9.73.27A7.64,7.64,0,0,1,256.67,172c-3,.61-5.54,0-7.5-2.48-.79-.25-.92-1.43-1.94-1.37a51.77,51.77,0,0,0-7.31,1.18c-4.23,1-8.6,1.5-12.54,3.65-3.37,1.83-5.74,4.19-6.19,8.2a36.26,36.26,0,0,1-3.12,11.75c-2.14,4.43-.67,8.13,1.89,11.71,3.37,4.73,7.9,8.25,12.36,11.86a3.6,3.6,0,0,0,4,.81,7.53,7.53,0,0,1,8.65,2.95,7.72,7.72,0,0,1-.17,9,8.07,8.07,0,0,1-9.14,2.68,7.45,7.45,0,0,1-4.71-7.44c.32-2.51-1-3.52-2.73-4.46a9.65,9.65,0,0,1-1.28-.88c-4.46-3.39-9-6.6-14.41-8.38-3.17-1.06-6.4-1.35-9.13,1.39a15.62,15.62,0,0,1-2.76,2c-2.92,1.85-3.66,3.65-3.22,7.09.5,3.92,2.24,7.36,3.74,10.92a3.32,3.32,0,0,0,3,2.43c2.94.35,5,3.91,4.3,7.06-.56,2.64-4.15,5.33-6.55,4.7-4.15-1.07-6.85-5.42-4.3-9.22a2.16,2.16,0,0,0,.47-2.38c-1.24-2.57-2.32-5.21-3.7-7.73-2.38-4.35-5.42-7.29-10.87-5.85-.3,0-.6.09-.89.15l0,0s-2.31.29-4.55.54l0,0-.43.1-1.28.13c-.62,0-1.25,0-1.88,0a47.49,47.49,0,0,1-22.24-5.81c-1.47-.81-1.51-.22-1.51,1q0,27.18,0,54.38a1.85,1.85,0,0,0,1.78,2.13c3.93.75,7.86,1.45,11.85,1.9a101.94,101.94,0,0,0,44.65-5.18,96.48,96.48,0,0,0,20.37-10,105.36,105.36,0,0,0,24.69-22.17c6.86-8.24,11.74-17.63,15.66-27.51a92.3,92.3,0,0,0,5.36-20.83A104.33,104.33,0,0,0,274.42,156.5Zm-173.64-.83a5.08,5.08,0,0,1-5,5c-2.54,0-5-2.3-5.06-4.65a4.91,4.91,0,0,1,4.91-5.19A5.09,5.09,0,0,1,100.78,155.67Zm53.53-52.14a4.48,4.48,0,1,1,4.47-4.47A4.48,4.48,0,0,1,154.31,103.53Zm39,15.14a4.9,4.9,0,0,1-4.66-5,4.46,4.46,0,0,1,4.49-4.6,4.4,4.4,0,0,1,4.88,4.54C198.08,116.11,195.73,118.73,193.33,118.67Zm44.93,29.68a6.47,6.47,0,0,1-6.58-6.58,6.6,6.6,0,0,1,6.56-6.41,6.31,6.31,0,0,1,6.44,6.61A6.19,6.19,0,0,1,238.26,148.35Zm-61.68,99.5a4.52,4.52,0,0,1-4.64-4.68,4.69,4.69,0,0,1,4.48-4.68,4.81,4.81,0,0,1,4.88,4.73A4.6,4.6,0,0,1,176.58,247.85Zm46.78-1.8a4.48,4.48,0,1,1,4.48-4.48A4.49,4.49,0,0,1,223.36,246.05Zm22.93-45.43a6.81,6.81,0,0,1-6.48-6.76,6.33,6.33,0,0,1,6.7-6.37A6.58,6.58,0,0,1,253,194,6.83,6.83,0,0,1,246.29,200.62Z"/></svg>