<svg id="Layer_1" data-name="Layer 1" xmlns="http://www.w3.org/2000/svg" viewBox="0 0 894.05 335.39"><defs><style>.cls-1{font-size:43.5px;font-family:LEMONMILK-Medium, LEMON MILK;font-weight:500;letter-spacing:0.24em;}.cls-2{letter-spacing:0.17em;}.cls-3{letter-spacing:0.24em;}</style></defs><path d="M209.28,142.25a26.31,26.31,0,1,0,26.31,26.3A26.29,26.29,0,0,0,209.28,142.25Zm-11.47,9.4a2.79,2.79,0,1,1,2.79,2.79A2.79,2.79,0,0,1,197.81,151.65Zm10.39,18.19a6.13,6.13,0,1,1,6.13-6.12A6.12,6.12,0,0,1,208.2,169.84Z"/><path d="M286.19,90.79a108.77,108.77,0,1,0-119.69,177l0-5a103.84,103.84,0,1,1,19.95,6.66l-.21,4.66a109.36,109.36,0,0,0,23,2.44A108.77,108.77,0,0,0,286.19,90.79Z"/><path d="M299.33,150.94a106.91,106.91,0,0,0-3.73-14.16,19.53,19.53,0,0,1-1.56-4.21c-.91-1.89-1.8-3.8-2.73-5.68a92.6,92.6,0,0,0-17.3-24A91,91,0,0,0,214.8,76.28a94.32,94.32,0,0,0-28.24,2.64,87.35,87.35,0,0,0-24.9,10.55A90.32,90.32,0,0,0,128.37,125a92.47,92.47,0,0,0-9.87,31.66A90.49,90.49,0,0,0,121,191.87a89.07,89.07,0,0,0,18.2,34.74A90.41,90.41,0,0,0,165,247.84c1,.55,1.59.85,1.59-.76,0-16.72,0-33.44,0-50.16,0-1.95-.57-2.35-2.5-1.77a91.32,91.32,0,0,0-10.68,4.43,3,3,0,0,0-2,2.81c-.52,4.61-5,7.4-9.73,5.85-3.79-1.24-5.68-6.2-4.1-9.63a7.2,7.2,0,0,1,10.32-3.5,2.44,2.44,0,0,0,2.55.19c4.74-2.54,9.51-5,13.53-8.69a7,7,0,0,0,2.7-6c-.18-2.11,0-4.24-.05-6.36s-.83-3.2-2.94-4c-3.57-1.35-7.28-.94-11-1a3.54,3.54,0,0,0-3.47,1.64c-1.43,2.11-4.07,2.54-6.88,1.5-1.6-.59-3.11-3.11-3-5.16a5.64,5.64,0,0,1,1.87-4.17c2.82-2.22,6-1.74,8.32,1.13a2.7,2.7,0,0,0,2.31,1.13,55.06,55.06,0,0,0,8.89-.44c2.3-.38,4.94-.78,5.79-3.1,1.22-3.3,2.95-6.68,1.74-10.45a4.37,4.37,0,0,0-.23-.49,17.11,17.11,0,0,0-4.82-5.6A106.48,106.48,0,0,0,152,137.47a2.52,2.52,0,0,0-2.91-.14,6.91,6.91,0,0,1-9.05-2.09,7.24,7.24,0,0,1,7.67-11.34,7.3,7.3,0,0,1,5.37,6.55c.06.84-.08,1.63.87,2.2,4.46,2.66,8.92,5.33,13.92,6.88a11.41,11.41,0,0,0,5.14.76,14.07,14.07,0,0,0,7.36-3.87,5.72,5.72,0,0,0,1.79-6.5c-1.2-3.89-3.71-7-5.89-10.31-.4-.6-1-.56-1.61-.59a5.53,5.53,0,1,1,5.06-3.63c-.21.67-.62,1.35-.16,2.08,2.26,3.57,4.31,7.31,7.81,9.87a5.57,5.57,0,0,0,6.13.78,14.43,14.43,0,0,1,3.71-1.37c3.86-.7,6.2-3,7.5-6.57,2.13-5.81,2-11.88,2.06-17.94,0-.92-.63-1.27-1.24-1.62a6.58,6.58,0,0,1-3.49-6.82c.35-3,1.88-5.3,5-6.14,3.77-1,6.8.76,8.58,3.8,1.5,2.56.34,7.08-2.25,8.59a3.9,3.9,0,0,0-2.07,4.37c.54,3.9.14,7.87,1,11.75,1,5,2.89,9.17,8.44,10.66a27.91,27.91,0,0,1,7.67,3c2.69,1.69,5.56,2,8.34.06,3-2.11,4.93-5.24,7.23-8a2.39,2.39,0,0,0,.32-2.65c-.91-2.6,1.12-6.17,3.77-6.67a5.22,5.22,0,0,1,5.52,1.88,5,5,0,0,1,.54,5.93,5.27,5.27,0,0,1-5.44,2.81,1.74,1.74,0,0,0-1.82.79c-1.57,2.13-3.33,4.14-4.75,6.36-2.44,3.84-3.06,7.26.39,11.25a34.71,34.71,0,0,1,6,10.26,7.55,7.55,0,0,0,4.29,4.41c5,2.08,10.18,1.76,15.38,1.24a12.09,12.09,0,0,1,4-.17c1.4.34,2.07-.35,2.9-1.26s1.36-2.47,2.42-3.35a6.81,6.81,0,0,1,8.82.24,6.93,6.93,0,0,1-3,12c-2.71.54-5,0-6.8-2.25-.72-.23-.83-1.3-1.75-1.25a47.94,47.94,0,0,0-6.63,1.07c-3.83.94-7.78,1.37-11.35,3.31-3.06,1.66-5.2,3.8-5.61,7.43a32.94,32.94,0,0,1-2.82,10.64c-1.94,4-.61,7.37,1.7,10.61,3.06,4.28,7.16,7.47,11.2,10.74a3.26,3.26,0,0,0,3.58.74,6.84,6.84,0,0,1,7.84,2.66,7,7,0,0,1-.16,8.14,7.3,7.3,0,0,1-8.28,2.42,6.74,6.74,0,0,1-4.27-6.73c.29-2.27-.9-3.19-2.47-4a8.52,8.52,0,0,1-1.16-.8c-4-3.07-8.2-6-13-7.59-2.87-1-5.8-1.22-8.27,1.26a14.44,14.44,0,0,1-2.5,1.77c-2.64,1.68-3.31,3.31-2.92,6.43.45,3.54,2,6.67,3.39,9.89a3,3,0,0,0,2.7,2.19c2.66.33,4.5,3.55,3.89,6.41-.5,2.38-3.76,4.82-5.93,4.25-3.76-1-6.2-4.91-3.89-8.35.43-.64.86-1.23.42-2.15-1.12-2.34-2.1-4.73-3.35-7-2.16-3.93-4.91-6.6-9.85-5.3l-.8.14,0,0s-2.09.26-4.12.49l0,0-.39.08-1.16.12c-.57,0-1.14,0-1.7,0a43.25,43.25,0,0,1-20.15-5.27c-1.33-.73-1.37-.19-1.37.89q0,24.63,0,49.25a1.68,1.68,0,0,0,1.62,1.94c3.56.67,7.12,1.3,10.73,1.71A92.24,92.24,0,0,0,239.94,254a87,87,0,0,0,18.45-9,95.36,95.36,0,0,0,22.37-20.09c6.21-7.46,10.63-16,14.18-24.91a84.7,84.7,0,0,0,4.86-18.87A94.6,94.6,0,0,0,299.33,150.94Zm-157.27-.75a4.6,4.6,0,0,1-4.51,4.52A4.73,4.73,0,0,1,133,150.5a4.44,4.44,0,0,1,4.45-4.69A4.61,4.61,0,0,1,142.06,150.19ZM190.54,103a4.06,4.06,0,1,1,4.05-4.06A4.05,4.05,0,0,1,190.54,103Zm35.34,13.71a4.44,4.44,0,0,1-4.22-4.51,4,4,0,0,1,4.07-4.17,4,4,0,0,1,4.42,4.11C230.19,114.36,228.06,116.73,225.88,116.68Zm40.7,26.88a5.86,5.86,0,0,1-6-6,6,6,0,0,1,5.94-5.81,5.73,5.73,0,0,1,5.84,6A5.62,5.62,0,0,1,266.58,143.56Zm-55.86,90.12a4.1,4.1,0,0,1-4.21-4.24,4.23,4.23,0,0,1,4.06-4.23,4.35,4.35,0,0,1,4.42,4.28A4.17,4.17,0,0,1,210.72,233.68Zm42.36-1.63a4.06,4.06,0,1,1,4.06-4.06A4.06,4.06,0,0,1,253.08,232.05Zm20.78-41.15a6.18,6.18,0,0,1-5.88-6.12,5.74,5.74,0,0,1,6.07-5.77,6,6,0,0,1,5.83,5.9A6.17,6.17,0,0,1,273.86,190.9Z"/><path d="M372.18,99.27h40.73c19.29,0,30.75,9.82,30.75,25,0,16.39-11.53,26-30.83,26H389.3v30.19H372.18Zm17.12,37.49h22c9.24,0,15.33-3,15.33-12.23,0-7.42-4.73-11.86-15.33-11.86h-22Z"/><path d="M466.22,160l-8.17,20.4H440.47l33.39-81.15h21.6l35,81.15H512L503.35,160Zm32.2-13.85c-8.31-19.82-12.31-29.67-14.23-35.64h-.11c-1.77,5.82-6.48,18.67-13.25,35.64Z"/><path d="M541.87,99.27h17v67.31h46.56l-2.31,13.84H541.87Z"/><path d="M680.32,145H633.94v21.57h51.43l-2,13.81H616.9V99.27h65.9v13.81H633.94v18.15h46.38Z"/><path d="M700.77,180.42V99.27H721c21.33,31.78,35.9,51.1,40.83,60.33h.23c-.77-9.18-.66-23.6-.66-36.9V99.27h15.69v81.15h-19C749,167,721.17,125.57,716,116.24h-.23c.65,10.16.65,21.69.65,36.08v28.1Z"/><text class="cls-1" transform="translate(369.37 240.7)">DI<tspan class="cls-2" x="65.95" y="0">A</tspan><tspan class="cls-3" x="107.04" y="0">GNOSTICS</tspan></text></svg>